<svg xmlns="http://www.w3.org/2000/svg" aria-hidden="true" focusable="false" width="1em" height="1em" preserveAspectRatio="xMidYMid meet" viewBox="0 0 24 24" class="sc-fzoXWK cRbcyV iconify" data-inline="false" data-icon="mdi-light:gift">
        <path d="M4 13v8h7v-8H4zm8 0v8h7v-8h-7zm8 0v9H3v-9H2V7h3.035L5 6.5a3.5 3.5 0 0 1 6.5-1.804A3.5 3.5 0 0 1 18 6.5l-.035.5H21v6h-1zM3 8v4h8V8H3zm17 4V8h-8v4h8zm-3.05-5l.05-.5a2.5 2.5 0 0 0-5 0V7h4.95zM11 7v-.5a2.5 2.5 0 0 0-5 0l.05.5H11z" fill="currentColor"/>
</svg>
